<svg width="122" height="68" viewBox="0 0 122 68" fill="none" xmlns="http://www.w3.org/2000/svg">
<path d="M17.739 37.2981C17.739 38.153 17.5253 38.9366 17.0978 39.6491C16.6704 40.3615 16.1004 40.9314 15.388 41.3588C14.6756 41.7863 13.892 42 13.0371 42H6.19796C5.34307 42 4.54754 41.7863 3.81139 41.3588C3.09898 40.9314 2.52905 40.3615 2.10161 39.6491C1.67416 38.9366 1.46044 38.153 1.46044 37.2981V36.2295C1.46044 35.7783 1.61479 35.3983 1.9235 35.0896C2.25596 34.7572 2.64779 34.5909 3.09898 34.5909H4.09635C4.5238 34.5909 4.89187 34.7572 5.20058 35.0896C5.53304 35.3983 5.69927 35.7783 5.69927 36.2295V37.2981C5.69927 37.4168 5.74676 37.5356 5.84175 37.6543C5.96049 37.7493 6.07922 37.7968 6.19796 37.7968H13.0371C13.1558 37.7968 13.2627 37.7493 13.3577 37.6543C13.4527 37.5356 13.5001 37.4168 13.5001 37.2981V34.0566C13.5001 33.7954 13.3814 33.6292 13.1439 33.558L4.59504 30.3521C3.64516 30.0197 2.88526 29.4379 2.31533 28.6067C1.7454 27.7756 1.46044 26.8613 1.46044 25.8639V22.6581C1.46044 21.7795 1.67416 20.9839 2.10161 20.2715C2.52905 19.5591 3.09898 18.9892 3.81139 18.5617C4.54754 18.1343 5.34307 17.9206 6.19796 17.9206H13.0371C13.892 17.9206 14.6756 18.1343 15.388 18.5617C16.1004 18.9892 16.6704 19.5591 17.0978 20.2715C17.5253 20.9839 17.739 21.7795 17.739 22.6581V23.6199C17.739 24.071 17.5728 24.451 17.2403 24.7597C16.9316 25.0684 16.5516 25.2228 16.1004 25.2228H15.1387C14.6875 25.2228 14.2957 25.0684 13.9632 24.7597C13.6545 24.451 13.5001 24.071 13.5001 23.6199V22.6581C13.5001 22.3256 13.3458 22.1594 13.0371 22.1594H6.19796C6.07922 22.1594 5.96049 22.2069 5.84175 22.3019C5.74676 22.3969 5.69927 22.5156 5.69927 22.6581V25.8639C5.69927 26.1489 5.81801 26.327 6.05548 26.3982L14.64 29.6041C15.5661 29.9365 16.3142 30.5183 16.8841 31.3495C17.454 32.1806 17.739 33.083 17.739 34.0566V37.2981ZM39.5053 40.3615C39.5053 40.8127 39.3509 41.2045 39.0422 41.5369C38.7335 41.8456 38.3417 42 37.8668 42H36.905C36.4538 42 36.062 41.8456 35.7295 41.5369C35.4208 41.2045 35.2665 40.8127 35.2665 40.3615V29.6397C35.2665 29.5447 35.219 29.4854 35.124 29.4616C35.0527 29.4379 34.9934 29.4616 34.9459 29.5328L31.5263 36.5857C31.4551 36.7757 31.3007 36.9419 31.0633 37.0844C30.8258 37.2269 30.6002 37.3456 30.3865 37.4406C30.1965 37.5118 30.1015 37.5474 30.1015 37.5474C29.3653 37.5474 28.8785 37.2269 28.6411 36.5857L25.2215 29.5328C25.1978 29.4616 25.1384 29.4379 25.0434 29.4616C24.9484 29.4854 24.9009 29.5447 24.9009 29.6397V40.3615C24.9009 40.8127 24.7347 41.2045 24.4022 41.5369C24.0935 41.8456 23.7136 42 23.2624 42H22.265C21.8138 42 21.422 41.8456 21.0895 41.5369C20.7808 41.2045 20.6265 40.8127 20.6265 40.3615V19.5591C20.6265 19.0842 20.7808 18.6924 21.0895 18.3836C21.422 18.0749 21.8138 17.9206 22.265 17.9206H23.298C23.9629 17.9206 24.4497 18.2293 24.7584 18.8467C24.8772 19.1079 25.1146 19.6185 25.4708 20.3784C25.8508 21.1145 26.2901 21.9932 26.7888 23.0143C27.2875 24.0354 27.798 25.1159 28.3205 26.2558C28.8667 27.3719 29.3891 28.4405 29.8878 29.4616C29.9353 29.5566 29.9946 29.6041 30.0659 29.6041C30.1609 29.6041 30.2321 29.5566 30.2796 29.4616L35.3733 18.8467C35.682 18.2293 36.1807 17.9206 36.8694 17.9206H37.8668C38.3417 17.9206 38.7335 18.0749 39.0422 18.3836C39.3509 18.6924 39.5053 19.0842 39.5053 19.5591V40.3615ZM58.7164 37.2981C58.7164 38.153 58.5027 38.9366 58.0752 39.6491C57.6478 40.3615 57.0779 40.9314 56.3655 41.3588C55.653 41.7863 54.8694 42 54.0145 42H47.1754C46.3205 42 45.525 41.7863 44.7888 41.3588C44.0764 40.9314 43.5065 40.3615 43.079 39.6491C42.6516 38.9366 42.4379 38.153 42.4379 37.2981V22.6581C42.4379 21.7795 42.6516 20.9839 43.079 20.2715C43.5065 19.5591 44.0764 18.9892 44.7888 18.5617C45.525 18.1343 46.3205 17.9206 47.1754 17.9206H54.0145C54.8694 17.9206 55.653 18.1343 56.3655 18.5617C57.0779 18.9892 57.6478 19.5591 58.0752 20.2715C58.5027 20.9839 58.7164 21.7795 58.7164 22.6581V37.2981ZM54.4776 37.2981V22.6581C54.4776 22.3256 54.3232 22.1594 54.0145 22.1594H47.1754C47.0566 22.1594 46.9379 22.2069 46.8192 22.3019C46.7242 22.3969 46.6767 22.5156 46.6767 22.6581V37.2981C46.6767 37.4168 46.7242 37.5356 46.8192 37.6543C46.9379 37.7493 47.0566 37.7968 47.1754 37.7968H54.0145C54.1332 37.7968 54.2401 37.7493 54.3351 37.6543C54.4301 37.5356 54.4776 37.4168 54.4776 37.2981ZM77.9181 37.2981C77.9181 38.153 77.7043 38.9366 77.2769 39.6491C76.8494 40.3615 76.2795 40.9314 75.5671 41.3588C74.8547 41.7863 74.071 42 73.2162 42H66.377C65.5221 42 64.7266 41.7863 63.9905 41.3588C63.278 40.9314 62.7081 40.3615 62.2807 39.6491C61.8532 38.9366 61.6395 38.153 61.6395 37.2981V22.6581C61.6395 21.7795 61.8532 20.9839 62.2807 20.2715C62.7081 19.5591 63.278 18.9892 63.9905 18.5617C64.7266 18.1343 65.5221 17.9206 66.377 17.9206H73.2162C74.071 17.9206 74.8547 18.1343 75.5671 18.5617C76.2795 18.9892 76.8494 19.5591 77.2769 20.2715C77.7043 20.9839 77.9181 21.7795 77.9181 22.6581V37.2981ZM73.6792 37.2981V22.6581C73.6792 22.3256 73.5249 22.1594 73.2162 22.1594H66.377C66.2583 22.1594 66.1396 22.2069 66.0208 22.3019C65.9258 22.3969 65.8783 22.5156 65.8783 22.6581V37.2981C65.8783 37.4168 65.9258 37.5356 66.0208 37.6543C66.1396 37.7493 66.2583 37.7968 66.377 37.7968H73.2162C73.3349 37.7968 73.4417 37.7493 73.5367 37.6543C73.6317 37.5356 73.6792 37.4168 73.6792 37.2981ZM96.6923 20.5209C96.6923 20.9721 96.5379 21.3639 96.2292 21.6963C95.9205 22.0051 95.5286 22.1594 95.0537 22.1594H91.3136C91.0049 22.1594 90.8505 22.3138 90.8505 22.6225V40.3615C90.8505 40.8127 90.6843 41.2045 90.3518 41.5369C90.0431 41.8456 89.6631 42 89.212 42H88.2858C87.8346 42 87.4428 41.8456 87.1104 41.5369C86.8016 41.2045 86.6473 40.8127 86.6473 40.3615V22.6225C86.6473 22.3138 86.4929 22.1594 86.1842 22.1594H82.4085C81.9573 22.1594 81.5654 22.0051 81.233 21.6963C80.9243 21.3639 80.7699 20.9721 80.7699 20.5209V19.5591C80.7699 19.0842 80.9243 18.6924 81.233 18.3836C81.5654 18.0749 81.9573 17.9206 82.4085 17.9206H95.0537C95.5286 17.9206 95.9205 18.0749 96.2292 18.3836C96.5379 18.6924 96.6923 19.0842 96.6923 19.5591V20.5209ZM115.406 40.3615C115.406 40.8127 115.252 41.2045 114.943 41.5369C114.634 41.8456 114.242 42 113.768 42H112.806C112.355 42 111.963 41.8456 111.63 41.5369C111.322 41.2045 111.167 40.8127 111.167 40.3615V32.525C111.167 32.24 111.013 32.0975 110.704 32.0975H104.292C103.984 32.0975 103.829 32.24 103.829 32.525V40.3615C103.829 40.8127 103.663 41.2045 103.331 41.5369C103.022 41.8456 102.642 42 102.191 42H101.194C100.742 42 100.35 41.8456 100.018 41.5369C99.7093 41.2045 99.555 40.8127 99.555 40.3615V19.5591C99.555 19.0842 99.7093 18.6924 100.018 18.3836C100.35 18.0749 100.742 17.9206 101.194 17.9206H102.191C102.642 17.9206 103.022 18.0749 103.331 18.3836C103.663 18.6924 103.829 19.0842 103.829 19.5591V27.36C103.829 27.6925 103.984 27.8587 104.292 27.8587H110.704C111.013 27.8587 111.167 27.6925 111.167 27.36V19.5591C111.167 19.0842 111.322 18.6924 111.63 18.3836C111.963 18.0749 112.355 17.9206 112.806 17.9206H113.768C114.242 17.9206 114.634 18.0749 114.943 18.3836C115.252 18.6924 115.406 19.0842 115.406 19.5591V40.3615Z" fill="black"/>
<path d="M1.13749 49.09H4.1534C4.7865 49.09 5.29437 49.2709 5.67701 49.6327C6.05965 49.9944 6.25097 50.6049 6.25097 51.4641C6.25097 52.0659 6.16401 52.5425 5.99008 52.8938C5.81615 53.2452 5.57091 53.4974 5.25436 53.6504C4.93781 53.8 4.56561 53.8748 4.13775 53.8748H2.19149V56.635H1.13749V49.09ZM4.15862 53.0764C4.46473 53.0764 4.69084 53.0034 4.83694 52.8573C4.98303 52.7077 5.0787 52.5147 5.12392 52.2781C5.17262 52.0416 5.19697 51.7946 5.19697 51.5372C5.19697 51.2902 5.17783 51.0397 5.13957 50.7858C5.10131 50.5319 5.01086 50.3197 4.86824 50.1492C4.7291 49.9753 4.50125 49.8883 4.18471 49.8883H2.19149V53.0764H4.15862ZM8.05634 56.635V49.09H11.4218C11.8462 49.09 12.215 49.1596 12.528 49.2987C12.8446 49.4344 13.0898 49.6657 13.2637 49.9927C13.4411 50.3162 13.5299 50.7597 13.5299 51.3233C13.5299 51.932 13.4307 52.3842 13.2324 52.6799C13.0376 52.9721 12.782 53.1843 12.4654 53.3165L14.0673 56.635H12.9872L11.4897 53.5043H9.11034V56.635H8.05634ZM9.11034 52.7112H11.3331C11.6393 52.7112 11.8741 52.6538 12.0376 52.539C12.201 52.4242 12.3141 52.2694 12.3767 52.0746C12.4428 51.8763 12.4758 51.6572 12.4758 51.4172C12.4758 51.1737 12.455 50.9354 12.4132 50.7023C12.375 50.4693 12.2845 50.2762 12.1419 50.1231C11.9993 49.9666 11.7697 49.8883 11.4532 49.8883H9.11034V52.7112ZM15.6953 49.09H20.407V49.8727H16.744V52.3564H19.9791V53.1391H16.744V55.8523H20.4696V56.635H15.6953V49.09ZM22.2489 56.635V49.09H23.2142L25.7813 53.2643L28.3224 49.09H29.2512V56.635H28.2598V50.7858L26.1466 54.2452H25.3691L23.2507 50.7962V56.635H22.2489ZM31.3801 55.8523H32.8202V49.8675H31.3801V49.09H35.3039V49.8675H33.869V55.8523H35.3039V56.635H31.3801V55.8523ZM40.36 56.7498C39.7443 56.7498 39.2381 56.682 38.8416 56.5463C38.4485 56.4106 38.1424 56.2245 37.9232 55.988C37.7041 55.7515 37.551 55.4784 37.4641 55.1688C37.3806 54.8557 37.3388 54.5218 37.3388 54.167V49.09H38.3929V54.2765C38.3929 54.7392 38.4833 55.0871 38.6642 55.3201C38.8485 55.5532 39.0903 55.7097 39.3895 55.7897C39.6886 55.8662 40.0121 55.9045 40.36 55.9045C40.7148 55.9045 41.0313 55.8662 41.3096 55.7897C41.5914 55.7097 41.814 55.5532 41.9775 55.3201C42.141 55.0871 42.2227 54.7392 42.2227 54.2765V49.09H43.2767V54.167C43.2767 54.5148 43.2333 54.8453 43.1463 55.1584C43.0628 55.468 42.915 55.7428 42.7028 55.9828C42.4906 56.2228 42.1949 56.4106 41.8158 56.5463C41.4366 56.682 40.9513 56.7498 40.36 56.7498ZM45.4578 56.635V49.09H46.4231L48.9903 53.2643L51.5314 49.09H52.4601V56.635H51.4688V50.7858L49.3555 54.2452H48.5781L46.4596 50.7962V56.635H45.4578ZM56.7179 56.635L59.5303 49.09H60.4539L63.2715 56.635H62.2018L61.6957 55.1636H58.3198L57.8084 56.635H56.7179ZM58.5911 54.3913H61.4296L60.0208 50.2953L58.5911 54.3913ZM64.8577 49.09H67.8736C68.5067 49.09 69.0146 49.2709 69.3972 49.6327C69.7799 49.9944 69.9712 50.6049 69.9712 51.4641C69.9712 52.0659 69.8842 52.5425 69.7103 52.8938C69.5364 53.2452 69.2911 53.4974 68.9746 53.6504C68.658 53.8 68.2858 53.8748 67.858 53.8748H65.9117V56.635H64.8577V49.09ZM67.8789 53.0764C68.185 53.0764 68.4111 53.0034 68.5572 52.8573C68.7033 52.7077 68.7989 52.5147 68.8442 52.2781C68.8929 52.0416 68.9172 51.7946 68.9172 51.5372C68.9172 51.2902 68.8981 51.0397 68.8598 50.7858C68.8215 50.5319 68.7311 50.3197 68.5885 50.1492C68.4493 49.9753 68.2215 49.8883 67.9049 49.8883H65.9117V53.0764H67.8789ZM71.7766 49.09H74.7925C75.4256 49.09 75.9334 49.2709 76.3161 49.6327C76.6987 49.9944 76.8901 50.6049 76.8901 51.4641C76.8901 52.0659 76.8031 52.5425 76.6292 52.8938C76.4552 53.2452 76.21 53.4974 75.8934 53.6504C75.5769 53.8 75.2047 53.8748 74.7768 53.8748H72.8306V56.635H71.7766V49.09ZM74.7977 53.0764C75.1038 53.0764 75.3299 53.0034 75.476 52.8573C75.6221 52.7077 75.7178 52.5147 75.763 52.2781C75.8117 52.0416 75.8361 51.7946 75.8361 51.5372C75.8361 51.2902 75.8169 51.0397 75.7787 50.7858C75.7404 50.5319 75.6499 50.3197 75.5073 50.1492C75.3682 49.9753 75.1403 49.8883 74.8238 49.8883H72.8306V53.0764H74.7977ZM77.8188 56.635L80.6312 49.09H81.5548L84.3724 56.635H83.3028L82.7966 55.1636H79.4207L78.9094 56.635H77.8188ZM79.692 54.3913H82.5305L81.1217 50.2953L79.692 54.3913ZM85.9587 56.635V49.09H89.3242C89.7485 49.09 90.1173 49.1596 90.4303 49.2987C90.7469 49.4344 90.9921 49.6657 91.1661 49.9927C91.3435 50.3162 91.4322 50.7597 91.4322 51.3233C91.4322 51.932 91.333 52.3842 91.1348 52.6799C90.94 52.9721 90.6843 53.1843 90.3677 53.3165L91.9696 56.635H90.8895L89.392 53.5043H87.0127V56.635H85.9587ZM87.0127 52.7112H89.2355C89.5416 52.7112 89.7764 52.6538 89.9399 52.539C90.1034 52.4242 90.2164 52.2694 90.279 52.0746C90.3451 51.8763 90.3782 51.6572 90.3782 51.4172C90.3782 51.1737 90.3573 50.9354 90.3156 50.7023C90.2773 50.4693 90.1868 50.2762 90.0442 50.1231C89.9016 49.9666 89.672 49.8883 89.3555 49.8883H87.0127V52.7112ZM93.5976 49.09H98.3093V49.8727H94.6464V52.3564H97.8814V53.1391H94.6464V55.8523H98.3719V56.635H93.5976V49.09ZM100.151 49.09H101.2V55.8262H104.586V56.635H100.151V49.09Z" fill="black"/>
</svg>
